<svg width="459" height="250" viewBox="0 0 459 250" fill="none" xmlns="http://www.w3.org/2000/svg">
<path d="M200 150H0V250H200V150Z" fill="#CCFF00"/>
<path d="M393.75 0H243.75V100H393.75V0Z" fill="#CCFF00"/>
<path d="M75 25H156.3V43.8H100V87.5H75V25Z" fill="black"/>
<path d="M100 87.5H150V106.3H100V87.5Z" fill="black"/>
<path d="M50 112.5H75V162.5H50V112.5Z" fill="black"/>
<path d="M187.1 25H206.8V30.9H194.1V38.1H204.9V44H194.1V56.2H187V25H187.1Z" fill="black"/>
<path d="M237.3 56.3L230.2 43.8C233.5 42.3 235.8 39.4 235.8 34.8C235.8 27.4 230.4 25.1 223.7 25.1H212.4V56.4H219.5V45H223.4L229.4 56.2H237.3V56.3ZM219.5 30.6H223.1C226.8 30.6 228.8 31.6 228.8 34.7C228.8 37.8 226.8 39.4 223.1 39.4H219.5V30.6Z" fill="black"/>
<path d="M242.1 25H261.7V30.9H249.2V37.2H259.9V43.1H249.2V50.3H262.2V56.2H242.1V25Z" fill="black"/>
<path d="M268.6 25H275.7V56.3H268.6V25Z" fill="black"/>
<path d="M282.8 25H302.4V30.9H289.9V37.2H300.6V43.1H289.9V50.3H302.9V56.2H282.8V25Z" fill="black"/>
<path d="M427.3 71.8C429.3 71.8 430.7 70.4 430.7 68.4C430.7 66.5 429.3 65 427.3 65C425.3 65 423.9 66.4 423.9 68.4C423.9 70.4 425.3 71.8 427.3 71.8Z" fill="black"/>
<path d="M416.7 71.8C418.7 71.8 420.1 70.4 420.1 68.4C420.1 66.5 418.7 65 416.7 65C414.7 65 413.3 66.4 413.3 68.4C413.3 70.4 414.7 71.8 416.7 71.8Z" fill="black"/>
<path d="M187 90.9V74.1H194.1V91.6C194.1 97.7 196 99.8 199.5 99.8C203 99.8 205 97.7 205 91.6V74.1H211.8V90.9C211.8 101.4 207.5 106 199.5 106C191.4 106 187 101.4 187 90.9Z" fill="black"/>
<path d="M218.3 74.1H225.5L233.7 89.6L236.8 96.5H237C236.7 93.2 236.1 88.8 236.1 85.1V74.1H242.8V105.4H235.6L227.5 89.8L224.4 83H224.2C224.5 86.4 225.1 90.6 225.1 94.3V105.4H218.4V74.1H218.3Z" fill="black"/>
<path d="M249.9 74.1H257V105.4H249.9V74.1Z" fill="black"/>
<path d="M260.5 74.1H268L271.8 88.7C272.7 92.1 273.4 95.3 274.3 98.7H274.5C275.4 95.3 276.1 92.1 277 88.7L280.7 74.1H287.9L278.5 105.4H270L260.5 74.1Z" fill="black"/>
<path d="M291.4 74.1H311V80.1H298.5V86.4H309.2V92.3H298.5V99.5H311.5V105.4H291.4V74.1Z" fill="black"/>
<path d="M342.3 105.4L335.2 92.9C338.5 91.4 340.8 88.5 340.8 83.9C340.8 76.5 335.4 74.2 328.7 74.2H317.5V105.5H324.6V94.2H328.5L334.5 105.4H342.3ZM324.6 79.8H328.2C331.9 79.8 333.9 80.8 333.9 83.9C333.9 87 331.9 88.6 328.2 88.6H324.6V79.8Z" fill="black"/>
<path d="M344.4 101.5L348.5 96.7C350.7 98.6 353.6 100 356.2 100C359.1 100 360.6 98.8 360.6 97C360.6 95 358.8 94.4 356.1 93.3L352 91.6C348.8 90.3 345.7 87.6 345.7 83.1C345.7 77.9 350.3 73.8 356.8 73.8C360.4 73.8 364.2 75.2 366.9 77.9L363.3 82.4C361.2 80.8 359.3 80 356.8 80C354.4 80 352.8 81 352.8 82.8C352.8 84.7 354.8 85.4 357.6 86.5L361.6 88.1C365.4 89.6 367.8 92.2 367.8 96.6C367.8 101.8 363.5 106.3 356 106.3C351.9 106 347.6 104.4 344.4 101.5Z" fill="black"/>
<path d="M373.4 74.1H380.5V105.4H373.4V74.1Z" fill="black"/>
<path d="M393.9 80.1H385.3V74.1H409.5V80.1H400.9V105.4H393.8V80.1H393.9Z" fill="black"/>
<path d="M428.7 105.4H436.2L426.4 74.1H417.9L408.1 105.4H415.3L417.2 98H426.7L428.7 105.4ZM418.7 92.5L419.5 89.6C420.4 86.5 421.2 82.8 422 79.5H422.2C423 82.8 423.9 86.5 424.7 89.6L425.4 92.5H418.7Z" fill="black"/>
<path d="M443.1 80.1H434.5V74.1H458.8V80.1H450.2V105.4H443.1V80.1Z" fill="black"/>
<path d="M187.5 131.2H196.4C202.7 131.2 207 133.4 207 138.8C207 142 205.3 144.6 202.3 145.6V145.8C206.2 146.5 208.8 149 208.8 153.3C208.8 159.4 204.1 162.4 197.1 162.4H187.5V131.2ZM195.7 144.7C201.5 144.7 203.8 142.6 203.8 139.2C203.8 135.3 201.1 133.8 195.9 133.8H190.8V144.7H195.7ZM196.5 159.9C202.2 159.9 205.6 157.8 205.6 153.3C205.6 149.2 202.3 147.3 196.5 147.3H190.7V159.9H196.5Z" fill="black"/>
<path d="M215.5 131.2H233.1V134H218.7V144.6H230.8V147.4H218.7V159.7H233.6V162.5H215.5V131.2Z" fill="black"/>
<path d="M261.5 162.5L253.3 148.5C257.8 147.6 260.7 144.7 260.7 139.8C260.7 133.5 256.3 131.2 250 131.2H240.6V162.5H243.9V148.8H249.9L257.8 162.5H261.5ZM243.8 133.9H249.4C254.5 133.9 257.4 135.5 257.4 139.8C257.4 144.1 254.6 146.1 249.4 146.1H243.8V133.9Z" fill="black"/>
<path d="M267.4 131.2H270.7V159.7H284.6V162.5H267.4V131.2Z" fill="black"/>
<path d="M290.3 131.2H293.6V162.5H290.3V131.2Z" fill="black"/>
<path d="M302.6 131.2H306L318 151.8L321.4 158.2H321.6C321.4 155.1 321.2 151.8 321.2 148.6V131.2H324.3V162.5H321L309 141.9L305.6 135.5H305.4C305.6 138.6 305.8 141.7 305.8 144.9V162.5H302.7V131.2H302.6Z" fill="black"/>
</svg>
