<svg width="312" height="200" viewBox="0 0 312 200" fill="none" xmlns="http://www.w3.org/2000/svg">
<g clip-path="url(#clip0_56_333)">
<path d="M137.49 116.2H12V179H137.49V116.2Z" fill="#CCFF00"/>
<path d="M259.059 22H164.941V84.8H259.059V22Z" fill="#CCFF00"/>
<path d="M59.0588 37.7H110.071V49.5064H74.7451V76.95H59.0588V37.7Z" fill="black"/>
<path d="M74.7451 76.95H106.118V88.7564H74.7451V76.95Z" fill="black"/>
<path d="M43.3726 92.65H59.0588V124.05H43.3726V92.65Z" fill="black"/>
<path d="M129.396 37.7H141.757V41.4052H133.788V45.9268H140.565V49.632H133.788V57.2936H129.333V37.7H129.396Z" fill="black"/>
<path d="M160.894 57.3564L156.439 49.5064C158.51 48.5644 159.953 46.7432 159.953 43.8544C159.953 39.2072 156.565 37.7628 152.361 37.7628H145.271V57.4192H149.725V50.26H152.173L155.937 57.2936H160.894V57.3564ZM149.725 41.2168H151.984C154.306 41.2168 155.561 41.8448 155.561 43.7916C155.561 45.7384 154.306 46.7432 151.984 46.7432H149.725V41.2168Z" fill="black"/>
<path d="M163.906 37.7H176.204V41.4052H168.361V45.3616H175.075V49.0668H168.361V53.5884H176.518V57.2936H163.906V37.7Z" fill="black"/>
<path d="M180.533 37.7H184.988V57.3564H180.533V37.7Z" fill="black"/>
<path d="M189.443 37.7H201.741V41.4052H193.898V45.3616H200.612V49.0668H193.898V53.5884H202.055V57.2936H189.443V37.7Z" fill="black"/>
<path d="M280.11 67.0904C281.365 67.0904 282.243 66.2112 282.243 64.9552C282.243 63.762 281.365 62.82 280.11 62.82C278.855 62.82 277.976 63.6992 277.976 64.9552C277.976 66.2112 278.855 67.0904 280.11 67.0904Z" fill="black"/>
<path d="M273.459 67.0904C274.714 67.0904 275.592 66.2112 275.592 64.9552C275.592 63.762 274.714 62.82 273.459 62.82C272.204 62.82 271.325 63.6992 271.325 64.9552C271.325 66.2112 272.204 67.0904 273.459 67.0904Z" fill="black"/>
<path d="M129.333 79.0852V68.5348H133.788V79.5248C133.788 83.3556 134.98 84.6744 137.176 84.6744C139.373 84.6744 140.627 83.3556 140.627 79.5248V68.5348H144.894V79.0852C144.894 85.6792 142.196 88.568 137.176 88.568C132.094 88.568 129.333 85.6792 129.333 79.0852Z" fill="black"/>
<path d="M148.973 68.5348H153.49L158.635 78.2688L160.58 82.602H160.706C160.518 80.5296 160.141 77.7664 160.141 75.4428V68.5348H164.345V88.1912H159.827L154.745 78.3944L152.8 74.124H152.674C152.863 76.2592 153.239 78.8968 153.239 81.2204V88.1912H149.035V68.5348H148.973Z" fill="black"/>
<path d="M168.8 68.5348H173.255V88.1912H168.8V68.5348Z" fill="black"/>
<path d="M175.451 68.5348H180.157L182.541 77.7036C183.106 79.8388 183.545 81.8484 184.11 83.9836H184.235C184.8 81.8484 185.239 79.8388 185.804 77.7036L188.126 68.5348H192.643L186.745 88.1912H181.412L175.451 68.5348Z" fill="black"/>
<path d="M194.839 68.5348H207.137V72.3028H199.294V76.2592H206.008V79.9644H199.294V84.486H207.451V88.1912H194.839V68.5348Z" fill="black"/>
<path d="M226.776 88.1912L222.322 80.3412C224.392 79.3992 225.835 77.578 225.835 74.6892C225.835 70.042 222.447 68.5976 218.243 68.5976H211.216V88.254H215.671V81.1576H218.118L221.882 88.1912H226.776ZM215.671 72.1144H217.929C220.251 72.1144 221.506 72.7424 221.506 74.6892C221.506 76.636 220.251 77.6408 217.929 77.6408H215.671V72.1144Z" fill="black"/>
<path d="M228.094 85.742L230.667 82.7276C232.047 83.9208 233.867 84.8 235.498 84.8C237.318 84.8 238.259 84.0464 238.259 82.916C238.259 81.66 237.129 81.2832 235.435 80.5924L232.863 79.5248C230.855 78.7084 228.91 77.0128 228.91 74.1868C228.91 70.9212 231.796 68.3464 235.875 68.3464C238.133 68.3464 240.518 69.2256 242.212 70.9212L239.953 73.7472C238.635 72.7424 237.443 72.24 235.875 72.24C234.369 72.24 233.365 72.868 233.365 73.9984C233.365 75.1916 234.62 75.6312 236.376 76.322L238.886 77.3268C241.271 78.2688 242.776 79.9016 242.776 82.6648C242.776 85.9304 240.078 88.7564 235.373 88.7564C232.8 88.568 230.102 87.5632 228.094 85.742Z" fill="black"/>
<path d="M246.29 68.5348H250.745V88.1912H246.29V68.5348Z" fill="black"/>
<path d="M259.153 72.3028H253.757V68.5348H268.941V72.3028H263.545V88.1912H259.09V72.3028H259.153Z" fill="black"/>
<path d="M280.988 88.1912H285.694L279.545 68.5348H274.212L268.063 88.1912H272.58L273.773 83.544H279.733L280.988 88.1912ZM274.714 80.09L275.216 78.2688C275.78 76.322 276.282 73.9984 276.784 71.926H276.91C277.412 73.9984 277.976 76.322 278.478 78.2688L278.918 80.09H274.714Z" fill="black"/>
<path d="M290.024 72.3028H284.627V68.5348H299.874V72.3028H294.478V88.1912H290.024V72.3028Z" fill="black"/>
<path d="M129.647 104.394H135.231C139.184 104.394 141.882 105.775 141.882 109.166C141.882 111.176 140.816 112.809 138.933 113.437V113.562C141.38 114.002 143.012 115.572 143.012 118.272C143.012 122.103 140.063 123.987 135.671 123.987H129.647V104.394ZM134.792 112.872C138.431 112.872 139.875 111.553 139.875 109.418C139.875 106.968 138.18 106.026 134.918 106.026H131.718V112.872H134.792ZM135.294 122.417C138.871 122.417 141.004 121.098 141.004 118.272C141.004 115.698 138.933 114.504 135.294 114.504H131.655V122.417H135.294Z" fill="black"/>
<path d="M147.216 104.394H158.259V106.152H149.224V112.809H156.816V114.567H149.224V122.292H158.573V124.05H147.216V104.394Z" fill="black"/>
<path d="M176.078 124.05L170.933 115.258C173.757 114.693 175.576 112.872 175.576 109.794C175.576 105.838 172.816 104.394 168.863 104.394H162.965V124.05H165.035V115.446H168.8L173.757 124.05H176.078ZM164.973 106.089H168.486C171.686 106.089 173.506 107.094 173.506 109.794C173.506 112.495 171.749 113.751 168.486 113.751H164.973V106.089Z" fill="black"/>
<path d="M179.78 104.394H181.851V122.292H190.573V124.05H179.78V104.394Z" fill="black"/>
<path d="M194.149 104.394H196.22V124.05H194.149V104.394Z" fill="black"/>
<path d="M201.867 104.394H204L211.529 117.33L213.663 121.35H213.788C213.663 119.403 213.537 117.33 213.537 115.321V104.394H215.482V124.05H213.412L205.882 111.113L203.749 107.094H203.624C203.749 109.041 203.875 110.988 203.875 112.997V124.05H201.929V104.394H201.867Z" fill="black"/>
</g>
<defs>
<clipPath id="clip0_56_333">
<rect width="288" height="157" fill="white" transform="translate(12 22)"/>
</clipPath>
</defs>
</svg>
