<svg width="312" height="200" viewBox="0 0 312 200" fill="none" xmlns="http://www.w3.org/2000/svg">
<mask id="mask0_106_8" style="mask-type:luminance" maskUnits="userSpaceOnUse" x="50" y="42" width="212" height="116">
<path d="M261.987 42H50V157.562H261.987V42Z" fill="white"/>
</mask>
<g mask="url(#mask0_106_8)">
<path d="M142.369 111.337H50V157.562H142.369V111.337Z" fill="#CCFF00"/>
<path d="M231.852 42H162.575V88.225H231.852V42Z" fill="#CCFF00"/>
<path d="M84.6384 53.5562H122.187V62.2465H96.1846V82.4468H84.6384V53.5562Z" fill="black"/>
<path d="M96.1846 82.4468H119.277V91.1371H96.1846V82.4468Z" fill="black"/>
<path d="M73.0923 94.0029H84.6384V117.115H73.0923V94.0029Z" fill="black"/>
<path d="M136.411 53.5562H145.51V56.2834H139.644V59.6116H144.632V62.3389H139.644V67.9783H136.365V53.5562H136.411Z" fill="black"/>
<path d="M159.596 68.0247L156.317 62.2466C157.841 61.5532 158.903 60.2127 158.903 58.0864C158.903 54.6657 156.41 53.6025 153.315 53.6025H148.096V68.071H151.375V62.8013H153.177L155.947 67.9785H159.596V68.0247ZM151.375 56.1449H153.038C154.747 56.1449 155.671 56.6072 155.671 58.0401C155.671 59.4731 154.747 60.2127 153.038 60.2127H151.375V56.1449Z" fill="black"/>
<path d="M161.813 53.5562H170.865V56.2834H165.092V59.1956H170.034V61.9229H165.092V65.2511H171.096V67.9783H161.813V53.5562Z" fill="black"/>
<path d="M174.052 53.5562H177.331V68.0246H174.052V53.5562Z" fill="black"/>
<path d="M180.61 53.5562H189.662V56.2834H183.889V59.1956H188.831V61.9229H183.889V65.2511H189.893V67.9783H180.61V53.5562Z" fill="black"/>
<path d="M247.347 75.1892C248.271 75.1892 248.917 74.542 248.917 73.6175C248.917 72.7393 248.271 72.0459 247.347 72.0459C246.423 72.0459 245.776 72.693 245.776 73.6175C245.776 74.542 246.423 75.1892 247.347 75.1892Z" fill="black"/>
<path d="M242.451 75.1892C243.375 75.1892 244.021 74.542 244.021 73.6175C244.021 72.7393 243.375 72.0459 242.451 72.0459C241.528 72.0459 240.881 72.693 240.881 73.6175C240.881 74.542 241.528 75.1892 242.451 75.1892Z" fill="black"/>
<path d="M136.365 84.0187V76.2529H139.644V84.3423C139.644 87.162 140.522 88.1328 142.138 88.1328C143.755 88.1328 144.678 87.162 144.678 84.3423V76.2529H147.819V84.0187C147.819 88.8724 145.833 90.9987 142.138 90.9987C138.397 90.9987 136.365 88.8724 136.365 84.0187Z" fill="black"/>
<path d="M150.821 76.2529H154.146L157.933 83.4178L159.365 86.6073H159.458C159.319 85.0819 159.042 83.048 159.042 81.3377V76.2529H162.136V90.7214H158.811L155.07 83.5103L153.638 80.367H153.545C153.685 81.9386 153.961 83.8801 153.961 85.5904V90.7214H150.867V76.2529H150.821Z" fill="black"/>
<path d="M165.415 76.2529H168.694V90.7214H165.415V76.2529Z" fill="black"/>
<path d="M170.311 76.2529H173.775L175.53 83.0018C175.945 84.5734 176.269 86.0526 176.684 87.6243H176.776C177.192 86.0526 177.515 84.5734 177.931 83.0018L179.641 76.2529H182.965L178.624 90.7214H174.699L170.311 76.2529Z" fill="black"/>
<path d="M184.582 76.2529H193.634V79.0264H187.861V81.9386H192.803V84.6659H187.861V87.9941H193.865V90.7214H184.582V76.2529Z" fill="black"/>
<path d="M208.09 90.721L204.811 84.9429C206.335 84.2495 207.397 82.909 207.397 80.7827C207.397 77.362 204.903 76.2988 201.809 76.2988H196.636V90.7673H199.916V85.5438H201.717L204.487 90.721H208.09ZM199.916 78.8874H201.578C203.287 78.8874 204.21 79.3497 204.21 80.7827C204.21 82.2156 203.287 82.9552 201.578 82.9552H199.916V78.8874Z" fill="black"/>
<path d="M209.06 88.9181L210.954 86.6993C211.969 87.5776 213.309 88.2247 214.509 88.2247C215.849 88.2247 216.542 87.67 216.542 86.838C216.542 85.9135 215.71 85.6361 214.463 85.1276L212.57 84.3418C211.092 83.7409 209.66 82.4928 209.66 80.4127C209.66 78.009 211.785 76.1138 214.787 76.1138C216.449 76.1138 218.205 76.7609 219.451 78.009L217.789 80.0891C216.819 79.3495 215.941 78.9797 214.787 78.9797C213.678 78.9797 212.939 79.442 212.939 80.274C212.939 81.1523 213.863 81.4759 215.156 81.9843L217.003 82.7239C218.759 83.4173 219.867 84.6192 219.867 86.6531C219.867 89.0568 217.881 91.1369 214.417 91.1369C212.524 90.9982 210.538 90.2586 209.06 88.9181Z" fill="black"/>
<path d="M222.453 76.2529H225.732V90.7214H222.453V76.2529Z" fill="black"/>
<path d="M231.921 79.0264H227.949V76.2529H239.126V79.0264H235.154V90.7214H231.875V79.0264H231.921Z" fill="black"/>
<path d="M247.993 90.7214H251.457L246.931 76.2529H243.006L238.479 90.7214H241.804L242.682 87.3007H247.069L247.993 90.7214ZM243.375 84.7583L243.745 83.4178C244.16 81.9848 244.529 80.2745 244.899 78.7491H244.991C245.361 80.2745 245.776 81.9848 246.146 83.4178L246.47 84.7583H243.375Z" fill="black"/>
<path d="M254.644 79.0264H250.672V76.2529H261.894V79.0264H257.923V90.7214H254.644V79.0264Z" fill="black"/>
<path d="M136.596 102.647H140.706C143.616 102.647 145.602 103.664 145.602 106.16C145.602 107.639 144.817 108.841 143.431 109.304V109.396C145.232 109.72 146.434 110.875 146.434 112.863C146.434 115.682 144.263 117.069 141.03 117.069H136.596V102.647ZM140.383 108.888C143.062 108.888 144.125 107.917 144.125 106.345C144.125 104.542 142.877 103.849 140.476 103.849H138.12V108.888H140.383ZM140.753 115.914C143.386 115.914 144.956 114.943 144.956 112.863C144.956 110.968 143.431 110.089 140.753 110.089H138.074V115.914H140.753Z" fill="black"/>
<path d="M149.528 102.647H157.656V103.941H151.006V108.841H156.594V110.135H151.006V115.822H157.888V117.116H149.528V102.647Z" fill="black"/>
<path d="M170.772 117.116L166.985 110.644C169.064 110.228 170.403 108.888 170.403 106.622C170.403 103.71 168.371 102.647 165.462 102.647H161.12V117.116H162.644V110.782H165.415L169.064 117.116H170.772ZM162.598 103.895H165.184C167.54 103.895 168.879 104.635 168.879 106.622C168.879 108.61 167.586 109.535 165.184 109.535H162.598V103.895Z" fill="black"/>
<path d="M173.497 102.647H175.022V115.822H181.442V117.116H173.497V102.647Z" fill="black"/>
<path d="M184.074 102.647H185.598V117.116H184.074V102.647Z" fill="black"/>
<path d="M189.755 102.647H191.325L196.867 112.169L198.437 115.128H198.529C198.437 113.695 198.345 112.169 198.345 110.69V102.647H199.776V117.116H198.253L192.71 107.593L191.14 104.635H191.048C191.14 106.068 191.233 107.501 191.233 108.98V117.116H189.8V102.647H189.755Z" fill="black"/>
</g>
</svg>
