<?xml version="1.0" standalone="no"?>
<!DOCTYPE svg PUBLIC "-//W3C//DTD SVG 20010904//EN"
 "http://www.w3.org/TR/2001/REC-SVG-20010904/DTD/svg10.dtd">
<svg version="1.0" xmlns="http://www.w3.org/2000/svg"
 width="700.000000pt" height="700.000000pt" viewBox="0 0 700.000000 700.000000"
 preserveAspectRatio="xMidYMid meet">
<metadata>
Created by potrace 1.14, written by Peter Selinger 2001-2017
</metadata>
<g transform="translate(0.000000,700.000000) scale(0.100000,-0.100000)"
fill="#000000" stroke="none">
<path d="M3097 6994 c-1 -1 -42 -5 -92 -8 -49 -4 -97 -9 -105 -11 -8 -2 -33
-6 -55 -10 -100 -14 -166 -26 -270 -49 -137 -30 -374 -105 -505 -160 -46 -20
-90 -36 -97 -36 -7 0 -13 -4 -13 -10 0 -5 -6 -10 -14 -10 -15 0 -191 -89 -300
-152 -69 -40 -346 -224 -356 -237 -3 -4 -27 -25 -55 -46 -167 -133 -444 -418
-563 -580 -230 -312 -395 -630 -507 -972 -36 -107 -78 -266 -90 -332 -3 -19
-8 -37 -10 -40 -2 -4 -6 -27 -10 -51 -6 -47 -12 -82 -19 -115 -2 -11 -7 -47
-10 -80 -4 -33 -9 -73 -11 -90 -2 -16 -7 -94 -10 -172 -5 -114 -4 -143 7 -144
7 0 298 -2 646 -2 l634 -2 0 -179 c-1 -98 -3 -180 -6 -183 -3 -3 -294 -6 -646
-6 l-641 0 5 -146 c4 -80 8 -155 10 -166 2 -11 7 -51 11 -90 4 -38 9 -79 11
-90 2 -10 6 -37 9 -60 3 -22 8 -47 10 -55 2 -8 7 -28 10 -45 48 -279 190 -668
342 -940 71 -125 83 -147 145 -239 290 -435 688 -807 1133 -1056 108 -61 307
-160 321 -160 3 0 30 -11 59 -25 105 -48 399 -139 550 -171 47 -10 193 -35
230 -40 22 -3 49 -7 60 -9 41 -8 203 -19 305 -19 l105 -1 0 645 0 645 185 -1
185 -1 0 -647 0 -647 140 6 c173 7 346 26 465 50 14 3 36 7 50 10 23 4 45 9
88 19 9 2 31 7 47 11 121 28 406 123 509 170 242 110 367 178 546 298 96 64
233 168 320 242 48 41 298 290 340 340 54 62 142 175 180 230 19 28 38 52 41
55 7 6 91 136 113 175 9 17 35 62 57 100 201 352 336 767 394 1205 12 92 14
121 20 263 l7 145 -628 0 c-346 0 -638 1 -649 1 -19 1 -20 8 -20 180 l0 179
645 -1 645 -1 -2 75 c-14 531 -138 1014 -376 1469 -28 52 -55 105 -61 117 -6
13 -14 23 -18 23 -5 0 -8 5 -8 11 0 25 -193 303 -295 424 -96 114 -121 141
-227 246 -309 308 -680 553 -1083 716 -149 61 -374 133 -495 158 -275 58 -430
77 -645 79 l-100 1 -1 -644 -1 -644 -181 -1 -182 -1 0 25 c0 14 0 305 0 648
l0 623 -111 -3 c-61 -2 -111 -4 -112 -4z m543 -2399 c191 -23 401 -112 545
-229 194 -159 323 -357 385 -596 64 -244 36 -516 -79 -754 -83 -172 -218 -326
-379 -433 -444 -296 -1020 -236 -1396 145 -206 208 -313 470 -320 781 -3 136
45 343 111 476 38 75 127 206 167 245 20 19 36 41 36 49 0 8 3 11 7 8 3 -4 16
4 27 16 35 38 147 122 206 155 127 71 286 124 415 138 33 3 61 7 62 8 5 5 159
-2 213 -9z"/>
</g>
</svg>
